<svg xmlns="http://www.w3.org/2000/svg" width="143" height="93.239" viewBox="0 0 143 93.239">
  <g id="Groupe_333" data-name="Groupe 333" transform="translate(-4162.169 772.947)">
    <path id="Tracé_1164" data-name="Tracé 1164" d="M767.914,286.579H646.143A6.15,6.15,0,0,1,640,280.436V212.143A6.15,6.15,0,0,1,646.143,206H767.914a6.15,6.15,0,0,1,6.143,6.143v68.293A6.15,6.15,0,0,1,767.914,286.579ZM646.143,206.723a5.426,5.426,0,0,0-5.42,5.42v68.293a5.426,5.426,0,0,0,5.42,5.42H767.914a5.426,5.426,0,0,0,5.42-5.42V212.143a5.426,5.426,0,0,0-5.42-5.42Z" transform="translate(3522.169 -966.288)" fill="#3f3d56"/>
    <path id="Tracé_1165" data-name="Tracé 1165" d="M864.213,281.313H840.726a1.626,1.626,0,0,0,0,3.252h23.487a1.626,1.626,0,0,0,0-3.252Z" transform="translate(3395.012 -1014.387)" fill="#3f3d56"/>
    <path id="Tracé_1166" data-name="Tracé 1166" d="M887.108,309.813H840.416a1.663,1.663,0,0,0,0,3.252h46.692a1.663,1.663,0,0,0,0-3.252Z" transform="translate(3395.011 -1032.589)" fill="#3f3d56"/>
    <path id="Tracé_1167" data-name="Tracé 1167" d="M887.108,339H840.416a1.663,1.663,0,0,0,0,3.252h46.692a1.663,1.663,0,0,0,0-3.252Z" transform="translate(3395.011 -1051.229)" fill="#3f3d56"/>
    <path id="Tracé_1168" data-name="Tracé 1168" d="M715.764,294.256h-40.47a3.8,3.8,0,0,1-3.794-3.794V245.294a3.8,3.8,0,0,1,3.794-3.794h40.47a3.8,3.8,0,0,1,3.794,3.794v45.168A3.8,3.8,0,0,1,715.764,294.256Z" transform="translate(3502.052 -988.96)" fill="#6c63ff"/>
    <ellipse id="Ellipse_95" data-name="Ellipse 95" cx="12.5" cy="13.5" rx="12.5" ry="13.5" transform="translate(4280.17 -772.947)" fill="#6c63ff"/>
    <path id="Tracé_1169" data-name="Tracé 1169" d="M990.517,202.38a1.635,1.635,0,0,1-.984-.327l-.018-.013-3.705-2.837a1.646,1.646,0,1,1,2-2.613l2.4,1.84,5.671-7.4a1.646,1.646,0,0,1,2.308-.3l-.035.048.036-.047a1.648,1.648,0,0,1,.3,2.308l-6.671,8.7a1.647,1.647,0,0,1-1.31.642Z" transform="translate(3301.726 -956.318)" fill="#fff"/>
    <path id="Tracé_1182" data-name="Tracé 1182" d="M734.979,346.076a5.074,5.074,0,0,1-2.919-.7,2.242,2.242,0,0,1-.882-1.674,1.508,1.508,0,0,1,.513-1.238,1.946,1.946,0,0,1,1.841-.265l-.744-5.437.546-.075.875,6.392-.456-.209a1.669,1.669,0,0,0-1.706.015.969.969,0,0,0-.318.8,1.7,1.7,0,0,0,.656,1.248,4.56,4.56,0,0,0,2.609.59Z" transform="translate(3463.94 -1049.755)" fill="#fff"/>
    <rect id="Rectangle_206" data-name="Rectangle 206" width="2.969" height="0.551" transform="translate(4191.057 -712.52)" fill="#fff"/>
    <rect id="Rectangle_207" data-name="Rectangle 207" width="2.969" height="0.551" transform="translate(4200.429 -712.52)" fill="#fff"/>
    <path id="Tracé_1183" data-name="Tracé 1183" d="M696.31,290.374a5.415,5.415,0,0,1-4.446-4.888,7.949,7.949,0,0,1,3.578-6.943,15.276,15.276,0,0,1,7.974-2.45,21.916,21.916,0,0,1,14.981,4.938,13.82,13.82,0,0,1,4.775,6.608,6.4,6.4,0,0,1-1.743,6.562,4.4,4.4,0,0,1-3.38,1.04,8.4,8.4,0,0,1-3.933-1.749c-2.246-1.633-4.089-3.907-6.825-4.761a5.306,5.306,0,0,0-5.835,1.739,3.3,3.3,0,0,0-.527,1.383.428.428,0,0,0,.289.509.416.416,0,0,0,.509-.289c.322-2.285,3.131-3.138,5.1-2.616,2.875.761,4.8,3.326,7.163,4.956a8.7,8.7,0,0,0,4.171,1.665,5.18,5.18,0,0,0,3.639-1.118,7.078,7.078,0,0,0,2.34-6.791,13.33,13.33,0,0,0-4.543-7.191,22.726,22.726,0,0,0-15.531-5.737,16.991,16.991,0,0,0-8.466,2.209,9.246,9.246,0,0,0-4.564,6.9,6.514,6.514,0,0,0,3.511,6.353,5.5,5.5,0,0,0,1.762.5C696.838,291.261,696.834,290.434,696.31,290.374Z" transform="translate(3489.588 -1010.507)" fill="#fff"/>
  </g>
</svg>
