<svg xmlns="http://www.w3.org/2000/svg" width="358.21" height="319.976" viewBox="0 0 358.21 319.976">
  <path id="Intersection_3" data-name="Intersection 3" d="M144.09,309.093c-1.061-.139-2.083-.283-3.061-.431h-.005l-.016,0q-1.732-.263-3.272-.534-2.641-.46-5.355-1.046c-2.362-.513-3.859-.913-4.261-1.022-2.974-.818-6.02-1.653-8.744-2.553l-.382-.131q-.768-.258-1.493-.524l-.347-.125c-.324-.121-.642-.244-.95-.368-.9-.36-1.976-.76-3.029-1.172-.876-.342-1.732-.692-2.462-1.035l-.029-.013-.1-.045c-.854-.4-1.785-.856-2.745-1.333-2.43-1.2-5.043-2.554-7.128-3.7a60.793,60.793,0,0,1-6.646-4.424l-.07-.049-.05-.04c-.588-.445-1.184-.909-1.78-1.389l-.182-.136c-.184-.149-.374-.31-.57-.477a48.718,48.718,0,0,1-6.442-6.268c-.016-.016-.486-.539-1.2-1.442L47.237,291.587l28.414-32.173c.009-.293.026-.575.051-.837h0c0-.068.006-.139.01-.21,0-.017,0-.033,0-.049.128-1.271.345-2.758.607-4.229.221-1.277.474-2.532.734-3.613a16.681,16.681,0,0,1,.523-1.708q.455-1.153,1.013-2.318l.044-.114.072-.136c.012-.029.023-.057.034-.086l0,0,.037-.069.15-.278v-1.8L0,233.408l83.192-20.144L28.4,171.544l86.491,15.524.762-9.345a37.5,37.5,0,0,1-4.906-5.035l-.124-.108q-.342-.292-.671-.581l0,0-.008-.007q-.378-.332-.742-.661a34.758,34.758,0,0,1-6.461-7.514c-.025-.04-.049-.077-.072-.116l-.048-.076a18.567,18.567,0,0,1-2.062-4.55c-.029-.092-.056-.182-.08-.269l-.122-.454c.011.034.022.069.033.1-.021-.081-.04-.163-.06-.244l-.059-.236.022.069-.009-.036c-.035-.152-.07-.316-.1-.452l.031.129q-.063-.309-.114-.621l-.011-.063,0,.018a17.281,17.281,0,0,1,.32-6.892q.151-.618.311-1.2t.324-1.193c.008-.027.015-.054.023-.081.1-.326.4-1.3.949-2.726.079-.2.159-.4.241-.593.29-.719.594-1.414.913-2.1l.01-.02q.369-.764.741-1.5.29-.59.58-1.173c.472-.964,1-1.885,1.645-2.932l.006-.011.027-.042c.121-.2.247-.4.377-.6q.737-1.219,1.486-2.346.321-.47.692-.989c.989-1.4,2.185-2.915,3.174-4.083.253-.3.527-.608.817-.926q.606-.687,1.267-1.4a40.1,40.1,0,0,1,3.163-3.032q.714-.6,1.425-1.143l.037-.031h0l.05-.036q1.014-.771,2.021-1.432l.483-.343c.19-.111.389-.224.594-.34q.539-.328,1.073-.628.316-.194.612-.373l.876-.416c.34-.17.679-.332,1.015-.487h0l-.059-.07-.029-.039-.278-.356.064.076-.076-.1-.055-.063-.1-.136c-.032-.041-.065-.084-.1-.126l-.04-.054q-.533-.7-.99-1.4c-.034-.049-.067-.1-.1-.145l-.088-.148-.089-.141-.14-.215-.013-.021q-.217-.355-.417-.715l-.076-.131-.01-.024q-.3-.549-.555-1.107l-.033-.067-.071-.16-.109-.229-.05-.132-.073-.164.045.091-.035-.091-.067-.152-.115-.3c.05.129.107.265.164.4l-.057-.149v0l-.023-.057c-.04-.1-.08-.2-.117-.3l-.048-.127-.062-.17-.012-.035-.083-.247c.014.041.029.083.043.126-.018-.059-.038-.121-.057-.184l-.131-.411c.028.086.059.18.091.277l-.027-.091-.035-.1-.03-.117-.062-.2-.041-.158-.005-.019c-.011-.043-.021-.086-.031-.131l-.036-.167-.027-.114-.008-.038.009.035-.027-.121c-.013-.062-.025-.124-.037-.187l-.013-.057c-.031-.166-.059-.33-.082-.5a11.979,11.979,0,0,1-.1-2.783c.006-.072.014-.147.021-.22.018-.175.041-.352.068-.529l.092-.515c.048-.236.1-.472.169-.709.023-.085.047-.171.073-.256l5.98-19.492,1.66-5.4,1.333-4.339,2.994-9.743c.023-.077.049-.153.075-.229l0,0c0-.006,0-.012.006-.018l.014-.041.005-.016s0,.008,0,.013c.037-.107.077-.213.12-.319h0c-.041.1-.08.2-.116.307.111-.32.234-.629.367-.93q.088-.2.193-.418l-.006.015.067-.124q.093-.182.192-.359l.106-.2.1-.158c.013-.022.026-.042.039-.063l.075-.114.112-.176-.133.2.094-.145.068-.1c.051-.078.1-.155.148-.223l.044-.059c.055-.079.109-.155.158-.222l-.067.1c.075-.1.155-.2.234-.3l.158-.207.081-.093.013-.016.039-.043c.179-.205.388-.442.56-.62.082-.085.176-.175.275-.269l-.03.024h0l.1-.087.153-.14.113-.109c.044-.04.089-.08.135-.12l.145-.135.4-.32.031-.026.072-.057.31-.247c.2-.14.432-.3.67-.455l.022-.015.325-.221.138-.081.23-.15.51-.279,0,0c.21-.119.416-.233.6-.329l.031-.017c.113-.054.23-.11.354-.167q.306-.149.624-.29s0-.007,0-.012l.225-.091.3-.14.388-.146.088-.041.205-.074.35-.143.382-.127.117-.046c.1-.031.193-.063.3-.094l.339-.122.54-.167c-.7-1.156-1.192-2.118-1.507-2.733a30.246,30.246,0,0,1-1.246-2.916c-.007-.018-.014-.036-.023-.054l0-.009-.014-.044a35.991,35.991,0,0,1-1.679-5.972c-.036-.2-.076-.422-.121-.671-.057-.292-.111-.573-.162-.837a40.309,40.309,0,0,1-.578-4.872c-.126-1.578-.2-3.361-.18-5.306,0-.574.023-1.269.06-2.035q.012-.281.027-.558h0c.1-2,.275-3.706.485-5.2.019-.141.038-.282.058-.421s.047-.3.071-.444c.068-.424.139-.83.211-1.219q.049-.263.1-.527a.015.015,0,0,1,0-.006l.078-.364c.123-.594.251-1.148.381-1.672.156-.644.339-1.355.554-2.094.031-.111.06-.22.091-.328a21.946,21.946,0,0,1,1.184-3.273q.095-.216.193-.429.343-.724.726-1.394.113-.193.232-.379c.443-.695.866-1.294,1.28-1.823l.113-.161.1-.105a14.014,14.014,0,0,1,2.236-2.2c.068-.06.137-.119.2-.175l.233-.157c.393-.287.8-.561,1.233-.838.123-.079.247-.158.373-.236l.211-.14.085-.044.116-.071.029-.017-.022.01.027-.014A15,15,0,0,1,151.43,5.1a30.6,30.6,0,0,1,4.561-1.571l.169-.047.234-.058q.618-.157,1.263-.3l.125-.032.1-.021.188-.036q1.211-.254,2.51-.455.288-.045.578-.086.927-.134,1.87-.24A40.9,40.9,0,0,1,171.972.63l.149-.012.135-.011h.013c.412-.031.827-.059,1.247-.084Q174.3.478,175.1.452c2.01-.068,4.1-.054,6.26.04l.319.014.056,0,.491.024.145.007.174.01,4.27.238L186.454.77l.356.02c11.874.66,25.876,3.937,38.484,8.838l.127.049.068.026A111.6,111.6,0,0,1,242.927,18.2l2.588,1.552q.694.412,1.373.826.286.176.57.353l.206.131q1.218.763,2.376,1.544l.144.1.014.009.008.005.01.007.113.076.015.01q1.3.884,2.475,1.761l.193.143.061.046q.954.717,1.831,1.427l.013.011.095.077.039.031.07.057.045.038.062.05.051.042.039.032.128.106.033.028.076.062.024.021.084.07,0,0a38.789,38.789,0,0,1,5.461,5.5c.788.655,1.354,1.18,2.323,2.1.887.845,1.637,1.621,2.248,2.291l.018.018c.246.252.5.551.765.864.629.731,1.02,1.245,1.173,1.452l.024.029a26.675,26.675,0,0,1,2.168,3.317c.009.019.019.038.028.058a15.866,15.866,0,0,1,1.97,5.869l.042.214c0,.009,0,.019,0,.029s0,.005,0,.007c0,.071.006.144.009.218q.065.6.1,1.246l-.051,1.255c.006.134.012.27.015.4-.013.233-.04.533-.062.767v.006s0,.006,0,.01,0,.012,0,.018c-.017.154-.036.307-.057.461l-.008.087c-.006.032-.012.064-.018.1q-.105.733-.26,1.465a33.643,33.643,0,0,1-1.619,5.358c-.419,1.085-.875,2.14-1.349,3.152l-.058.138-.157.314q-.375.782-.761,1.526l-.273.547-.118.21q-.2.4-.416.8a62.048,62.048,0,0,1-4.837,7.41l-.009.012-.016.022-.119.155c-.011.013-.022.028-.031.042l-.023.029-.046.06-.1.129-.023.03-.05.066-.066.085-.032.04a44.6,44.6,0,0,1-10.1,9.725,33.009,33.009,0,0,1-4.774,2.671,23.624,23.624,0,0,1,3.11,4.854l.106.226c.049.112.1.224.145.335l.078.177.006.016.346.066a10.083,10.083,0,0,1,2.587.818l.019.009.014.007.005,0A11.752,11.752,0,0,1,257,96.809l.021.025q.37.45.707.938l.1.149a16.3,16.3,0,0,1,1.071,1.845c.048.1.095.192.141.289q.367.774.67,1.6l.065.181q.1.281.191.565L355,118.89v27.551l-16.486-3.431-82.993-17.273c-.1.121-.2.24-.3.357l0,0-.038.043a17.21,17.21,0,0,1-3.631,3.189l-.012.007c-.016.011-.032.02-.049.031l-.027.017c-.013.008-.026.017-.04.024l-.043.028-.025.016-.151.093,0,0a13.313,13.313,0,0,1-2.33,1.126l-.01,0-.064.024-.021.007-.057.02-.022.007-.055.019-.069.023-.017.005-.062.022h0a10.826,10.826,0,0,1-3.375.555,9.9,9.9,0,0,1-1.854-.175l-1.771-.338-2.817,9.181-.019.061,0,.005c-.005.015-.01.031-.015.047s0,0,0,0,0,.014-.007.022l-.005.016v0c0,.013-.008.023-.012.036s0,.007,0,.012l-.022.063a10.949,10.949,0,0,1-.8,1.8c-.067.122-.139.248-.214.376-.1.156-.2.325-.3.475-.037.056-.076.113-.115.169l-.491.647-.058.068c-.193.227-.431.5-.626.7l-.715.693c-.289.238-.671.563-.967.794l-.392.272-.036.025-.033.022-.415.287c-.084.055-.167.109-.251.161l-.11.064q-.178.111-.364.221l-.322.178c-.2.116-.4.227-.58.32l-.024.012-.02.01c-.129.061-.265.125-.4.19l-.545.257-.094.052h.007l-.189.078-.215.1-.4.152-.073.03-.04.021-.079.037-.311.122-.129.049-.5.166-.1.045c-.131.047-.282.1-.434.146l-.23.077-.159.754c.1.178.2.355.29.508l-.132-.219c.241.437.483.893.695,1.271h0q-.151-.263-.308-.523c.246.457.482.913.713,1.382l.122.231c-.029-.053-.059-.106-.088-.159.165.353.324.711.479,1.077l.106.207.007.007.44,1.109c0,.01.01.022.015.031l.03.083.042.1.048.149a20.6,20.6,0,0,1,.825,2.5q.266.891.476,1.8.081.354.157.707l.038.144c.021.112.041.221.062.331q.092.439.175.874l.031.115q.113.641.21,1.248c.007.034.014.067.021.1l.014.079c.011.087.023.174.033.258.018.116.035.231.051.346q.042.258.082.52c0,.031.01.063.014.094,0,.005,0,.01,0,.015l.011.07.005.04,0,.015a55.157,55.157,0,0,1,.452,8.973v0c0,.14,0,.279-.007.417l-.066,1.66,0,.1-.042.516c0,.042,0,.085,0,.126-.027.4-.068.881-.11,1.354q-.047.587-.105,1.2l-.006.044c-.128,1.056-.26,2.005-.4,2.874l-.028.2c-.009.047-.019.094-.028.14-.06.363-.122.71-.184,1.046,0,.021-.008.041-.013.062A37.523,37.523,0,0,1,229.6,191q-.144.3-.292.585c-.031.063-.062.126-.094.19l79.321-5.581-66.064,35.4,76.086,28.475-68.427,1.862c.007.024.014.049.02.073l0,.011c.022.088.043.179.064.272l.129.546.056.358c.05.2.1.4.139.594-.023-.093-.047-.185-.071-.278.066.3.128.593.187.891.016.088.032.188.048.292.062.372.113.791.159,1.2l.023.126s0,.007,0,.011c0,.037,0,.075,0,.112s.015.084.022.125a.135.135,0,0,1,0,.019l0,.117c.011.1.022.2.033.294,0,.03,0,.059.007.089l-.034-.221.019.506c.005.086.01.171.015.257q.022.274.038.549c.016.185.032.365.047.538,0,.015,0,.03,0,.045l-.04-.437c.005.092.01.184.014.275.016.287.029.578.037.87.005.161.01.319.013.474v.034c0,.13,0,.258,0,.384a.181.181,0,0,1,0,.022v.022a.235.235,0,0,1,0-.025l0,.208,0,.092s0,.005,0,.008v.013c0,.006,0,.012,0,.017,0,.086-.007.173-.012.262,0-.013,0-.024,0-.036a.245.245,0,0,0,0,.025c0,.008,0,.015,0,.023-.02.355-.051.733-.091,1.12l-.083,1.136-.069.378c.028-.266.056-.56.086-.9-.047.412-.1.825-.146,1.222l.059-.324c-.053.507-.106.907-.174,1.308,0,.027-.006.054-.009.081l-.019.077c-.051.286-.111.581-.185.92s-.139.684-.229,1.023a.243.243,0,0,1-.006.024l-.052.228.021-.11q-.061.22-.128.446c-.1.4-.2.788-.311,1.15-.021.068-.042.136-.064.2l-.008.034-.014.044c-.06.185-.127.377-.2.575l-.257.744-.284.651c-.157.388-.317.775-.47,1.147l-.28.725c0,.007-.006.014-.01.021l-.054.1c-.01.025-.019.049-.029.074l-.016.033-.283.524c-.068.158-.136.314-.2.465a.054.054,0,0,1-.005.01l.2-.462-.046.086c-.282.545-.581,1.13-.88,1.693-.272.512-.545,1.005-.807,1.434l-.014.02c-.238.384-.515.8-.808,1.223q-.259.414-.53.823c-.387.548-.835,1.157-1.349,1.813l11.851,22.008-24.2-10.592a63.549,63.549,0,0,1-6.987,4.384c-1.018.607-2.335,1.248-3.555,1.844l-.071.024c-.49.246-.964.482-1.4.7l-.049.025-4.031,1.769c.784-.328,1.574-.658,2.249-.94-.986.416-2.272.969-3.3,1.4l-.14.061-.058.025-.029.012-.677.253c-1.211.46-2.684,1.007-4.568,1.706l-.168.063-.207.076-.013,0-.046.017-.032.011-.627.2.627-.2-1.944.638-.6.179q-.759.243-1.539.482l-.005,0,.488-.136-1.106.327c-.406.124-.8.241-1.165.346l-.048.013c-.252.072-.516.144-.788.218l-.541.15.142-.036-.245.064q-.493.135-.995.268c-1.031.267-2.145.543-3.335.818l-.051.014c-.231.053-.464.107-.7.16l-.046.01c-1.352.305-2.794.609-4.319.9l-.166.033q-.932.18-1.9.352l-.075.012q-2.388.423-5,.793-.612.088-1.108.154h0l-.04.005-.02,0-.015,0-.25.032q-1.079.14-2.3.277-3.4.386-6.865.613-2.136.138-4.354.22-1.1.041-2.344.066h.094c-.112,0-.238,0-.358.008l-.324.005h-.176q-1.061.016-2.215.016-.607,0-1.24,0l-.473,0-.9-.012-.158,0-.533-.013q-2.021-.038-4.137-.133l.026,0-.364-.017c-.38-.019-.761-.038-1.146-.059l-.356-.021-6.389,8.8Zm51.8-197.438v0h0Zm-4.432-1.691h0v0h0Zm-10.571-3.394h0ZM210,104.92Zm-71.5-1.791h0Zm72.25-.647h0ZM134.8,100.021h0Zm13.577-1.079h0Zm-17.062-2.525h0Zm18.329-1.6h0v0Zm14.327-18.832h0ZM142.2,75.9h0Zm16.321-.421h0v0Zm-11.508-.08h0ZM166.75,310.294h.044ZM309.295,110.959,355,118.888h0Zm-183.956,6.989h0Zm-.366-.468-.016-.021-.017-.023.036.047Zm-2.864-4.617.05.1Zm-.332-.808c-.058-.135-.118-.3-.176-.457l.048.127c.037.1.076.2.117.3l.023.057Zm-.158-.39.065.165ZM133.332,64.7Z" transform="translate(2.71 0.091)" fill="#6b3100" stroke="rgba(0,0,0,0)" stroke-miterlimit="10" stroke-width="1" opacity="0.04"/>
</svg>
