<svg xmlns="http://www.w3.org/2000/svg" width="130.686" height="131.077" viewBox="0 0 130.686 131.077">
  <g id="Groupe_277" data-name="Groupe 277" transform="translate(0 -0.001)">
    <path id="Path_1" data-name="Path 1" d="M240.144,667.825l-1.151-4.539a58.953,58.953,0,0,0-6.254-2.244l-.145,2.11L232,660.828c-2.635-.753-4.428-1.085-4.428-1.085s2.421,9.209,7.5,16.25l5.919,1.04-4.6.663a23.844,23.844,0,0,0,2.056,2.18c7.389,6.859,15.62,10.006,18.383,7.029s-.987-10.95-8.376-17.808a31.4,31.4,0,0,0-8.049-5.176Z" transform="translate(-227.576 -557.404)" fill="#f2f2f2"/>
    <path id="Path_2" data-name="Path 2" d="M320.809,614.665l1.361-4.481a58.934,58.934,0,0,0-4.193-5.153l-1.215,1.731.7-2.294c-1.867-2.006-3.23-3.217-3.23-3.217s-2.687,9.135-1.978,17.788l4.529,3.949-4.28-1.809a23.848,23.848,0,0,0,.634,2.929c2.78,9.691,8.2,16.639,12.1,15.519s4.815-9.884,2.035-19.575a31.4,31.4,0,0,0-4.215-8.591Z" transform="translate(-297.296 -509.175)" fill="#f2f2f2"/>
    <path id="Path_22" data-name="Path 22" d="M441.119,107.514H440.4V87.846a11.384,11.384,0,0,0-11.384-11.384H387.346a11.384,11.384,0,0,0-11.384,11.384v107.9a11.384,11.384,0,0,0,11.384,11.384h41.671A11.384,11.384,0,0,0,440.4,195.75V121.515h.718Z" transform="translate(-349.927 -76.461)" fill="#e6e6e6"/>
    <path id="Path_23" data-name="Path 23" d="M444.238,93.335H438.8a4.039,4.039,0,0,1-3.74,5.564H411.186a4.039,4.039,0,0,1-3.74-5.564h-5.08a8.5,8.5,0,0,0-8.5,8.5V209.584a8.5,8.5,0,0,0,8.5,8.5h41.872a8.5,8.5,0,0,0,8.5-8.5h0V101.836a8.5,8.5,0,0,0-8.5-8.5Z" transform="translate(-364.689 -90.374)" fill="#fff"/>
    <path id="Path_6" data-name="Path 6" d="M511.078,317.8a4.288,4.288,0,0,1,2.146-3.715,4.29,4.29,0,1,0,0,7.43A4.287,4.287,0,0,1,511.078,317.8Z" transform="translate(-457.801 -271.919)" fill="#ccc"/>
    <path id="Path_7" data-name="Path 7" d="M541.816,317.8a4.288,4.288,0,0,1,2.147-3.715,4.29,4.29,0,1,0,0,7.43,4.287,4.287,0,0,1-2.146-3.715Z" transform="translate(-483.145 -271.918)" fill="#ccc"/>
    <circle id="Ellipse_1" data-name="Ellipse 1" cx="4.29" cy="4.29" r="4.29" transform="translate(59.651 41.592)" fill="#2b82b8"/>
    <path id="Path_8" data-name="Path 8" d="M511.155,288.395h-25a.9.9,0,0,1-.9-.9v-25a.9.9,0,0,1,.9-.9h25a.9.9,0,0,1,.9.9v25A.9.9,0,0,1,511.155,288.395Zm-25-26.438a.539.539,0,0,0-.539.539v25a.539.539,0,0,0,.539.539h25a.539.539,0,0,0,.539-.539v-25a.539.539,0,0,0-.539-.539Z" transform="translate(-440.044 -229.114)" fill="#ccc"/>
    <rect id="Rectangle_1" data-name="Rectangle 1" width="38.346" height="0.359" transform="translate(38.347 78.446)" fill="#ccc"/>
    <circle id="Ellipse_2" data-name="Ellipse 2" cx="1.211" cy="1.211" r="1.211" transform="translate(38.347 73.782)" fill="#2b82b8"/>
    <rect id="Rectangle_2" data-name="Rectangle 2" width="38.346" height="0.359" transform="translate(38.347 90.555)" fill="#ccc"/>
    <circle id="Ellipse_3" data-name="Ellipse 3" cx="1.211" cy="1.211" r="1.211" transform="translate(38.347 85.891)" fill="#2b82b8"/>
    <path id="Tracé_1074" data-name="Tracé 1074" d="M600.03,643.79H587.912a.79.79,0,0,1-.79-.79v-4.247a.79.79,0,0,1,.79-.789H600.03a.79.79,0,0,1,.79.789V643A.79.79,0,0,1,600.03,643.79Z" transform="translate(-524.039 -539.446)" fill="#2b82b8"/>
    <circle id="Ellipse_7" data-name="Ellipse 7" cx="1.211" cy="1.211" r="1.211" transform="translate(42.298 73.782)" fill="#2b82b8"/>
    <circle id="Ellipse_8" data-name="Ellipse 8" cx="1.211" cy="1.211" r="1.211" transform="translate(46.248 73.782)" fill="#2b82b8"/>
    <circle id="Ellipse_9" data-name="Ellipse 9" cx="1.211" cy="1.211" r="1.211" transform="translate(42.298 85.891)" fill="#2b82b8"/>
    <circle id="Ellipse_10" data-name="Ellipse 10" cx="1.211" cy="1.211" r="1.211" transform="translate(46.248 85.891)" fill="#2b82b8"/>
    <path id="Path_88" data-name="Path 88" d="M375.335,821.53H249.362c-.27,0-.488-.1-.488-.214s.218-.214.488-.214H375.335c.27,0,.488.1.488.214S375.6,821.53,375.335,821.53Z" transform="translate(-245.137 -690.452)" fill="#3f3d56"/>
    <path id="Tracé_1075" data-name="Tracé 1075" d="M780.359,540.955a1.762,1.762,0,0,1,.247.138l7.869-3.359.281-2.073,3.144-.019-.186,4.754-10.387,2.747a1.863,1.863,0,0,1-.079.212,1.8,1.8,0,1,1-.891-2.4Z" transform="translate(-681.285 -455.077)" fill="#ffb8b8"/>
    <path id="Tracé_1076" data-name="Tracé 1076" d="M622.062,696.03h-2.151l-1.023-8.3h3.175Z" transform="translate(-510.302 -567.068)" fill="#ffb8b8"/>
    <path id="Tracé_1077" data-name="Tracé 1077" d="M603.688,731.518h4.148v2.612h-6.76A2.612,2.612,0,0,1,603.688,731.518Z" transform="translate(-495.615 -603.17)" fill="#2f2e41"/>
    <path id="Tracé_1078" data-name="Tracé 1078" d="M665.991,692.754l-2.141.211-1.832-8.156,3.159-.311Z" transform="translate(-545.865 -564.399)" fill="#ffb8b8"/>
    <path id="Tracé_1079" data-name="Tracé 1079" d="M2.612,0H6.76V2.612H0A2.612,2.612,0,0,1,2.612,0Z" transform="translate(113.796 128.36) rotate(-5.625)" fill="#2f2e41"/>
    <circle id="Ellipse_78" data-name="Ellipse 78" cx="4.309" cy="4.309" r="4.309" transform="translate(108.05 63.166)" fill="#ffb8b8"/>
    <path id="Tracé_1080" data-name="Tracé 1080" d="M823.158,659.4a.784.784,0,0,1-.775-.649c-1.113-6.18-4.753-26.389-4.84-26.949a.244.244,0,0,1,0-.039v-1.507a.262.262,0,0,1,.049-.153l.481-.673a.26.26,0,0,1,.2-.11c2.741-.128,11.717-.505,12.151.037h0c.436.545.282,2.194.246,2.52l0,.034L834.7,657.7a.792.792,0,0,1-.652.9l-2.519.415a.793.793,0,0,1-.882-.543c-.779-2.489-3.391-10.864-4.3-14.1a.088.088,0,0,0-.172.024c.045,3.089.155,10.97.192,13.692l0,.293a.793.793,0,0,1-.718.8l-2.429.221C823.208,659.4,823.183,659.4,823.158,659.4Z" transform="translate(-714.03 -532.114)" fill="#2f2e41"/>
    <path id="Path_99" data-name="Path 99" d="M824.332,493.37a3.6,3.6,0,0,0-1.46,2.1,19.944,19.944,0,0,0-.857,4.765l-.273,4.843-3.378,12.838c2.928,2.478,4.617,1.914,8.559-.112s4.392.676,4.392.676l.788-10.923,1.126-11.936a5.292,5.292,0,0,0-.853-.82,8.713,8.713,0,0,0-7.447-1.578Z" transform="translate(-714.708 -419.891)" fill="#2b82b8"/>
    <path id="Tracé_1081" data-name="Tracé 1081" d="M834.481,552.023a1.847,1.847,0,0,1,.263.123l7.781-3.895.129-2.11,3.21-.221.172,4.81-10.4,3.439a1.842,1.842,0,1,1-1.157-2.146Z" transform="translate(-725.954 -463.552)" fill="#ffb8b8"/>
    <path id="Path_101" data-name="Path 101" d="M883.425,507.319c1.914.676,2.252,8,2.252,8-2.252-1.239-4.955.788-4.955.788s-.563-1.914-1.239-4.392a4.3,4.3,0,0,1,.9-4.054A3.067,3.067,0,0,1,883.425,507.319Z" transform="translate(-764.96 -431.532)" fill="#2b82b8"/>
    <path id="Path_102" data-name="Path 102" d="M851.588,433.907c-.537-.43-1.269.351-1.269.351l-.43-3.866a15.349,15.349,0,0,1-4.4-.107c-1.718-.429-1.987,1.557-1.987,1.557a13.784,13.784,0,0,1-.054-2.416c.107-.966,1.5-1.933,3.973-2.577S851.178,429,851.178,429C852.9,429.855,852.125,434.337,851.588,433.907Z" transform="translate(-735.366 -365.292)" fill="#2f2e41"/>
  </g>
</svg>
