<svg xmlns="http://www.w3.org/2000/svg" width="174.559" height="93" viewBox="0 0 174.559 93">
  <g id="Groupe_313" data-name="Groupe 313" transform="translate(-103 -97)">
    <text id="قيمة" transform="translate(193 138)" fill="#fff" font-size="38" font-family="SegoeUI-Bold, Segoe UI" font-weight="700"><tspan x="-72.976" y="0">قيمة</tspan></text>
    <text id="Qima" transform="translate(193 180)" fill="#fff" font-size="38" font-family="SegoeUI, Segoe UI"><tspan x="-89.916" y="0">Qima</tspan></text>
    <g id="Group_6" data-name="Group 6" transform="translate(205 106)">
      <path id="Path_12" data-name="Path 12" d="M385.953,55.846a36.287,36.287,0,0,0-33.126,51.089l10.548-6.381a24.142,24.142,0,1,1,5.662,8.721l-9.492,7.74A36.28,36.28,0,1,0,385.954,55.85Z" transform="translate(-349.671 -55.846)" fill="#fff"/>
      <line id="Line_1" data-name="Line 1" x1="10.548" y2="6.381" transform="translate(3.155 44.708)" fill="#1d82ba"/>
      <line id="Line_2" data-name="Line 2" x1="9.492" y2="7.74" transform="translate(9.873 53.425)" fill="#1d82ba"/>
      <path id="Path_13" data-name="Path 13" d="M397.343,110.762c-6.347,4.179-8.357,1.505-9.087,1.078s.786-5.135-.494-5.616-3.426,1.427-3.213.775-.034-1.325-2.865-1.786c-.449,3.774-1.392,2.718-2.752,2.725s-5.684,3.145-5.684,3.145l-.191,2.725-2.864-.472-14.087,11.974.551-5.381,11.97-8.732-11.974,8.728-5.292-1.124,15.7-9.761.427-2.864,2.651.654s4.3-3.161,4.74-4.448-.291-2.516,3.437-1.8c.426-2.834-.146-3.257-.82-3.257s1.786-1.472,1.719-2.834-5.021-1.37-5.2-2.19-2.112-3.55,3.8-8.312,11.267-2.977,11.447-.686a21.7,21.7,0,0,1,0,3.729l3.257-.18,2.943,4.763-.012.012,3.64,4.252-1.157,3.052a20.976,20.976,0,0,1,3.55,1.135C403.611,100.958,403.689,106.6,397.343,110.762Z" transform="translate(-350.209 -63.825)" fill="#fff"/>
    </g>
  </g>
</svg>
