<svg xmlns="http://www.w3.org/2000/svg" width="201.885" height="121.712" viewBox="0 0 201.885 121.712">
  <g id="Groupe_299" data-name="Groupe 299" transform="translate(0 -0.018)">
    <path id="Tracé_1110" data-name="Tracé 1110" d="M684.4,214.276l1.731-.3c.166-.029.331-.065.5-.095a14.211,14.211,0,0,1,9.074-26.2l-2.269,5.4,5.376-4.694a.25.25,0,0,1,.037.012,14.211,14.211,0,0,1,8.683,18.126c-.09.256-.2.5-.3.748a16.99,16.99,0,0,0,4.161-2.787c2.4-2.3,3.72-5.482,5.192-9.4,2.916-7.76,5.723-15.632,8.418-23.52a14.205,14.205,0,0,1-6.641-17.2c.144-.41.312-.805.489-1.193.044-.1.089-.194.135-.289.18-.372.37-.736.579-1.086.034-.057.072-.111.107-.168q.273-.442.575-.858c.075-.1.15-.208.227-.31.228-.3.465-.589.714-.867.083-.093.172-.18.257-.27q.287-.3.591-.588c.107-.1.212-.2.321-.3.028-.025.054-.052.083-.076l0,.006a14.2,14.2,0,0,1,18.17-.408l-2.952,7.026,5.315-4.638a14.133,14.133,0,0,1,.525,16.737l.015,0c-.058.085-.124.163-.184.247q-.168.236-.344.463c-.151.194-.308.382-.468.568-.121.14-.24.281-.366.416-.184.2-.377.383-.571.569-.113.108-.222.222-.338.326q-.458.409-.948.777c-.115.086-.235.161-.352.244-.229.161-.46.32-.7.467-.148.091-.3.175-.45.261-.218.124-.438.245-.663.357-.159.08-.319.156-.481.229-.23.105-.464.2-.7.3-.158.062-.316.125-.476.182-.265.093-.533.174-.8.252-.136.039-.271.084-.408.119-.405.1-.815.191-1.23.259-.078.013-.157.018-.236.029-.344.05-.689.09-1.037.115-.15.011-.3.012-.451.018-.281.011-.563.017-.847.01-.165,0-.33-.012-.5-.021q-.414-.023-.828-.072c-.163-.019-.326-.038-.49-.062-.3-.045-.592-.1-.888-.168l-.058-.011q-1.706,4.992-3.476,9.963a14.2,14.2,0,0,1,20.593,1.7l-4.913,5.434,6.652-2.656a14.162,14.162,0,0,1,.569,10.819,13.943,13.943,0,0,1-1.805,3.492,14.206,14.206,0,0,1-25.668-6.233c-.125.334-.246.672-.371,1.006-1.3,3.454-2.914,7.754-6.159,10.862a24.919,24.919,0,0,1-7.5,4.573q-2.536,1.1-5.139,2.041a14.243,14.243,0,0,1-6.36,2.027c-2.738.761-5.511,1.4-8.311,1.886l-1.745.3c-1.569.269-3.177.545-4.773.864.23.068.46.133.689.214a14.216,14.216,0,0,1,9.49,13.831l-10.941,3.358,9.9,1.572a14.218,14.218,0,0,1-23.691,4.2q.151.505.3,1.009c.2.667.4,1.33.592,1.987,2.605,8.952,1.484,15.994-3.158,19.827l-2.519-3.049c4.518-3.732,3.116-11.422,1.879-15.674-.188-.645-.384-1.3-.582-1.952-1.7-5.637-3.62-12.027-1.129-17.9C664.885,217.617,675.706,215.764,684.4,214.276Z" transform="translate(-547.055 -144.859)" fill="#f2f2f2"/>
    <path id="Tracé_1111" data-name="Tracé 1111" d="M420.37,399.167H343.709a9.479,9.479,0,0,1-9.479-9.479V354.566a3.755,3.755,0,0,1,1.172-2.725l40.623-38.507a8.743,8.743,0,0,1,12.03,0l38.732,36.714a9.816,9.816,0,0,1,3.063,7.124v32.517a9.479,9.479,0,0,1-9.479,9.479Z" transform="translate(-286.23 -277.838)" fill="#3f3d56"/>
    <path id="Tracé_1112" data-name="Tracé 1112" d="M240.954,387.992h94.822v38.3a5.724,5.724,0,0,1-5.724,5.724H246.677a5.724,5.724,0,0,1-5.724-5.724v-38.3Z" transform="translate(-192.954 -310.688)" opacity="0.1"/>
    <path id="Tracé_1113" data-name="Tracé 1113" d="M333.73,521.351" transform="translate(-285.83 -446.337)" fill="none" stroke="#3f3d56" stroke-miterlimit="10" stroke-width="1"/>
    <rect id="Rectangle_187" data-name="Rectangle 187" width="70.519" height="70.519" rx="26.181" transform="translate(60.45 47.125)" fill="#6c63ff"/>
    <path id="Tracé_1114" data-name="Tracé 1114" d="M373.973,395.942V434.7H303.454V395.942l35.259,17.042Z" transform="translate(-243.004 -317.054)" opacity="0.1"/>
    <path id="Tracé_1115" data-name="Tracé 1115" d="M381.539,548.836,336.361,527a1.833,1.833,0,0,0-2.631,1.65v37.57a5.724,5.724,0,0,0,5.724,5.724h84.172a5.724,5.724,0,0,0,5.724-5.724V529.294a2.237,2.237,0,0,0-3.21-2.014Z" transform="translate(-285.83 -450.715)" fill="#3f3d56"/>
    <rect id="Rectangle_188" data-name="Rectangle 188" width="19.721" height="2.789" transform="translate(66.526 53.599)" fill="#f2f2f2"/>
    <rect id="Rectangle_189" data-name="Rectangle 189" width="58.567" height="1.594" transform="translate(64.932 63.758)" fill="#f2f2f2"/>
    <rect id="Rectangle_190" data-name="Rectangle 190" width="58.567" height="1.594" transform="translate(64.932 69.137)" fill="#f2f2f2"/>
    <rect id="Rectangle_191" data-name="Rectangle 191" width="58.567" height="1.594" transform="translate(64.932 74.516)" fill="#f2f2f2"/>
    <line id="Ligne_27" data-name="Ligne 27" x2="164.146" transform="translate(12.142 121.229)" fill="none" stroke="#3f3d56" stroke-miterlimit="10" stroke-width="1"/>
    <path id="Tracé_1116" data-name="Tracé 1116" d="M93.275,630.212c0,11.745,7.368,21.249,16.474,21.249" transform="translate(-93.275 -533.513)" fill="#46455b"/>
    <path id="Tracé_1117" data-name="Tracé 1117" d="M175.975,650.5c0-11.877,8.223-21.488,18.384-21.488" transform="translate(-159.501 -532.553)" fill="#6c63ff"/>
    <path id="Tracé_1118" data-name="Tracé 1118" d="M123.239,635.557c0,11.157,4.7,20.185,10.505,20.185" transform="translate(-117.27 -537.793)" fill="#6c63ff"/>
    <path id="Tracé_1119" data-name="Tracé 1119" d="M175.975,626.508c0-15.176,9.5-27.457,21.249-27.457" transform="translate(-159.501 -508.559)" fill="#46455b"/>
    <path id="Tracé_1120" data-name="Tracé 1120" d="M158.577,732.56a8.565,8.565,0,0,0,3.04-.573c.7-.5,3.594-1.1,3.769-.3s3.511,4,.873,4.021-6.129-.411-6.832-.839S158.577,732.56,158.577,732.56Z" transform="translate(-145.568 -614.462)" fill="#a8a8a8"/>
    <path id="Tracé_1121" data-name="Tracé 1121" d="M166.307,740.494c-2.638.021-6.129-.411-6.832-.839-.535-.326-.748-1.5-.82-2.035l-.078,0s.148,1.884.851,2.312,4.194.86,6.832.839c.761-.006,1.024-.277,1.01-.678C167.164,740.338,166.873,740.49,166.307,740.494Z" transform="translate(-145.569 -619.524)" opacity="0.2"/>
    <path id="Tracé_1122" data-name="Tracé 1122" d="M807.5,294.215c-.12,1.067-.933,1.926-1.235,2.956a4.892,4.892,0,0,0,1.4,4.422,9.793,9.793,0,0,0,6.82,3.238,2.91,2.91,0,0,0,1.127-.123,2.415,2.415,0,0,0,.858-.586,5.484,5.484,0,0,0,1.415-3.068,16.33,16.33,0,0,0,.038-3.429,1.935,1.935,0,0,0-.127-.692,1.771,1.771,0,0,0-.445-.547,10.368,10.368,0,0,0-1.91-1.388,2.194,2.194,0,0,1-.8-.613,1.977,1.977,0,0,1-.247-.733l-.211-1.076a2.113,2.113,0,0,0-.31-.872,2.145,2.145,0,0,0-1.712-.6l-2.292-.09a11.051,11.051,0,0,0-2.348-.092c-.65.131-.434.73-.316,1.275A9.224,9.224,0,0,1,807.5,294.215Z" transform="translate(-664.125 -261.776)" fill="#a0616a"/>
    <path id="Tracé_1123" data-name="Tracé 1123" d="M807.5,294.215c-.12,1.067-.933,1.926-1.235,2.956a4.892,4.892,0,0,0,1.4,4.422,9.793,9.793,0,0,0,6.82,3.238,2.91,2.91,0,0,0,1.127-.123,2.415,2.415,0,0,0,.858-.586,5.484,5.484,0,0,0,1.415-3.068,16.33,16.33,0,0,0,.038-3.429,1.935,1.935,0,0,0-.127-.692,1.771,1.771,0,0,0-.445-.547,10.368,10.368,0,0,0-1.91-1.388,2.194,2.194,0,0,1-.8-.613,1.977,1.977,0,0,1-.247-.733l-.211-1.076a2.113,2.113,0,0,0-.31-.872,2.145,2.145,0,0,0-1.712-.6l-2.292-.09a11.051,11.051,0,0,0-2.348-.092c-.65.131-.434.73-.316,1.275A9.224,9.224,0,0,1,807.5,294.215Z" transform="translate(-664.125 -261.776)" opacity="0.1"/>
    <path id="Tracé_1124" data-name="Tracé 1124" d="M838.245,527.414l-.974,10.679c-.254,2.8-.513,5.613-1.012,8.378-.172.953-.374,1.9-.613,2.84a60.451,60.451,0,0,0-1.943,7.834c-.01.077-.018.156-.026.234a6.8,6.8,0,0,1-.333,1.738c-.156.408-.4.781-.564,1.184a7.556,7.556,0,0,0-.422,2.573,11.09,11.09,0,0,0-3.819-1.305,2.92,2.92,0,0,1-1.81-.649,2.589,2.589,0,0,1-.353-2.071q.386-3.345.771-6.688a17.433,17.433,0,0,1,.487-2.84c.089-.31.2-.615.3-.92.149-.42.3-.84.413-1.271a15.3,15.3,0,0,0,.341-2.117c.264-2.243.582-4.482.861-6.724l.015-.118a68.756,68.756,0,0,0,.644-10.235c-.013-.507-.034-1.013-.067-1.522-.046-.736-.113-1.127.5-1.587a11.474,11.474,0,0,1,2.332-1.2c.415-.18,4.984-1.8,5.09-1.446a8.9,8.9,0,0,1,.334,2.332A25.935,25.935,0,0,1,838.245,527.414Z" transform="translate(-680.295 -446.964)" fill="#605d82"/>
    <path id="Tracé_1125" data-name="Tracé 1125" d="M842.751,610.944c-.172.953-.374,1.9-.613,2.84a60.473,60.473,0,0,0-1.943,7.834c-.01.077-.018.156-.026.234-2.037-2.909-3.752-6.038-5.74-8.978.149-.42.3-.84.413-1.271a15.285,15.285,0,0,0,.341-2.117c.264-2.243.582-4.482.861-6.724l.015-.118a6.956,6.956,0,0,0,.5,1.379c1.335,2.712,4.506,4.083,6.058,6.679Q842.685,610.824,842.751,610.944Z" transform="translate(-686.786 -511.437)" opacity="0.1"/>
    <path id="Tracé_1126" data-name="Tracé 1126" d="M793.211,471.514a50.466,50.466,0,0,0,.763,6.48l.717,4.433a22.7,22.7,0,0,0,1.949,7.075,32.762,32.762,0,0,0,3.216,4.471c2.752,3.585,4.82,7.647,7.429,11.337.759,1.073,1.843,2.233,3.137,2.009a5.1,5.1,0,0,0,2.135-1.4A13.29,13.29,0,0,0,814.913,504a1.955,1.955,0,0,0-.1-2.719,4.427,4.427,0,0,0-.961-.393,5.215,5.215,0,0,1-2.679-3.05,29.2,29.2,0,0,0-1.575-3.861c-1.551-2.6-4.723-3.967-6.059-6.68a12.056,12.056,0,0,1-.876-4.964l-.146-4.315a3.15,3.15,0,0,1,.163-1.394c.511-1.149,2.053-1.256,3.3-1.4a11.294,11.294,0,0,0,4.046-1.276,4.22,4.22,0,0,0,1.806-1.6,5.171,5.171,0,0,0,.441-2.174l.432-7.82a4.9,4.9,0,0,0-.166-2c-.6-1.584-2.6-2.1-4.286-2.026-3.146.141-6.049,1.494-9.015,2.407a22.921,22.921,0,0,1-2.235.583,17.972,17.972,0,0,0-2.106.292c-1.129.381-1.1,2.85-1.26,3.874A32.6,32.6,0,0,0,793.211,471.514Z" transform="translate(-653.774 -395.858)" fill="#605d82"/>
    <path id="Tracé_1127" data-name="Tracé 1127" d="M874.981,685.638a2,2,0,0,1,.44,1.077,36.773,36.773,0,0,1,.623,6.512,1.063,1.063,0,0,0,.117.59.74.74,0,0,0,.306.246,2.356,2.356,0,0,0,2.4-.735,6.192,6.192,0,0,0,2.356-4.186,9.728,9.728,0,0,1,.044-1.269,5.3,5.3,0,0,1,.789-1.7,14.347,14.347,0,0,0,1.3-2.923c.122-.383.2-.866-.1-1.133a1.093,1.093,0,0,0-.357-.186l-3.621-1.345c-.314-.116-1.095,1.889-1.219,2.109a1.657,1.657,0,0,1-1.213.965c-.621.126-1.36-.055-1.939.255C873.935,684.439,874.426,685.078,874.981,685.638Z" transform="translate(-718.758 -573.848)" fill="#535070"/>
    <path id="Tracé_1128" data-name="Tracé 1128" d="M832.875,709.668a1.112,1.112,0,0,0-.276-.349,1.248,1.248,0,0,0-.556-.189,2.17,2.17,0,0,0-1.983.318c-.446.48-.369,1.263-.742,1.8-.118.171-.278.311-.38.492a1.853,1.853,0,0,0-.167.882c-.019.836-.039,1.673.019,2.507a3.508,3.508,0,0,0,.6,1.979c.7.879,1.966,1.005,3.089,1.062l.909.046a1.777,1.777,0,0,0,.745-.068,1.227,1.227,0,0,0,.643-.707c.473-1.177-.276-2.444-.738-3.625C833.512,712.459,833.608,710.951,832.875,709.668Z" transform="translate(-682.241 -596.64)" fill="#535070"/>
    <path id="Tracé_1129" data-name="Tracé 1129" d="M799.1,251.509a.752.752,0,0,1,.051-.351c.133-.236.481-.171.743-.105a17.286,17.286,0,0,0,3.253.087,2.57,2.57,0,0,1,2.529,1.671,7.931,7.931,0,0,0,2.006-2.061,2.474,2.474,0,0,0,.523-1.509,2.947,2.947,0,0,0-1.32-1.859l-1.808-1.475a2.722,2.722,0,0,0-.809-.515,4.032,4.032,0,0,0-1.314-.074c-1.316,0-2.719-.6-3.889,0a4.2,4.2,0,0,0-1.211,1.1l-1.613,1.91a1.021,1.021,0,0,0-.258.437,1.944,1.944,0,0,0,.116.7c.076.427-.108.882.034,1.292.234.68,1.06.776,1.565,1.166.188.145.483.638.707.632C798.807,252.546,799.086,251.823,799.1,251.509Z" transform="translate(-655.989 -225.08)" fill="#3f3d56"/>
    <circle id="Ellipse_89" data-name="Ellipse 89" cx="5.166" cy="5.166" r="5.166" transform="translate(140.679 21.726)" fill="#a0616a"/>
    <path id="Tracé_1130" data-name="Tracé 1130" d="M781.513,314.117a2.5,2.5,0,0,0-2.436-1.676.743.743,0,0,1-.449-.057.62.62,0,0,1-.185-.231,9.025,9.025,0,0,1-.753-1.781c-.082-.273-.2-.6-.472-.667a.637.637,0,0,0-.6.262,5.292,5.292,0,0,1-.43.54c-.65.581-1.8.051-2.491.584-.113.087-.206.2-.324.278a1.513,1.513,0,0,1-.379.163,36.394,36.394,0,0,0-3.91,1.531,36.83,36.83,0,0,0,2,8.158c.512,1.23,1.091,2.436,1.5,3.7a28.734,28.734,0,0,1,.958,8.768,18.265,18.265,0,0,1-.657,6,5.657,5.657,0,0,0-.369,1.317,1.365,1.365,0,0,0,.462,1.228,1.582,1.582,0,0,0,.713.251,9.244,9.244,0,0,0,3.39-.394c2.99-.692,6.039-1.089,9.082-1.484l5.1-.662a2.961,2.961,0,0,0,1.055-.273,2.022,2.022,0,0,0,.442-2.807,15.261,15.261,0,0,1-.9-1.232,1.144,1.144,0,0,1,.149-1.4c.817-.639.574-1.824.613-2.861q.164-4.348-.044-8.7a17.346,17.346,0,0,1-.029-1.8,15.981,15.981,0,0,1,.562-3.011l1.55-6.1a3.18,3.18,0,0,0-1.914-1.23c-.734-.184-1.5-.238-2.222-.463-1.481-.459-2.8-1.624-4.347-1.515a.789.789,0,0,0-.337.082c-.349.2-.294.7-.316,1.1a3.04,3.04,0,0,1-1.42,2.145,25.265,25.265,0,0,0-2.2,1.49A.983.983,0,0,0,781.513,314.117Z" transform="translate(-634.458 -275.92)" fill="#2e83ba"/>
    <path id="Tracé_1131" data-name="Tracé 1131" d="M717.692,357.9a6.1,6.1,0,0,1-1.087.559,3.573,3.573,0,0,0-1.041.505,1.635,1.635,0,0,0-.362.447,1.989,1.989,0,0,0,1.834,2.963,3.992,3.992,0,0,0,1.356-.4l3.644-1.579a2.865,2.865,0,0,0,1.574-1.186.276.276,0,0,0,.036-.188.311.311,0,0,0-.15-.157,8.141,8.141,0,0,1-2.121-2c-.149-.2-.333-.682-.544-.8C720.06,355.613,718.309,357.5,717.692,357.9Z" transform="translate(-591.105 -313.917)" fill="#a0616a"/>
    <path id="Tracé_1132" data-name="Tracé 1132" d="M889.3,359.084l1.343,1.534c.288.329.577.659.84,1.009a11.779,11.779,0,0,1,1.539,2.9,5.062,5.062,0,0,1,.432,2.4,5.866,5.866,0,0,1-.336,1.218,15.178,15.178,0,0,1-.913,2.2,12.526,12.526,0,0,1-1.027,1.539,35.923,35.923,0,0,1-3.405,3.895,4.438,4.438,0,0,0-.852,1.8,7.535,7.535,0,0,1-2.095,2.853,5.826,5.826,0,0,1-.9.774,2.93,2.93,0,0,1-1.637.466,1.8,1.8,0,0,1-.737-.153,1.906,1.906,0,0,1-.936-1.587,3.376,3.376,0,0,1,.282-1.7c.771-1.708,2.75-2.447,4.149-3.693a13.477,13.477,0,0,0,2.067-2.556,8.837,8.837,0,0,0,1.045-1.832c.313-.834.191-1.821.464-2.668.115-.358.321-.682.445-1.037a1.21,1.21,0,0,0-.062-1.085,1.577,1.577,0,0,0-.608-.445c-.894-.454-1.895-1.037-2.066-2.025a2.17,2.17,0,0,1,.4-1.547,6.449,6.449,0,0,1,1.127-1.181C888.247,359.818,888.9,359.43,889.3,359.084Z" transform="translate(-723.759 -316.395)" fill="#a0616a"/>
    <path id="Tracé_1133" data-name="Tracé 1133" d="M699.5,370.871a2.5,2.5,0,0,0-1.012-1.206,1.865,1.865,0,0,0-1.471-.006,5.532,5.532,0,0,0-1.291.781l-1.158.854a2.85,2.85,0,0,0-.687.634,2.68,2.68,0,0,0-.358.982,7.025,7.025,0,0,0-.182,2.43,6.907,6.907,0,0,0,1.837,3.439,3.058,3.058,0,0,0,2.033,1.274.933.933,0,0,0,.9-.452,1.125,1.125,0,0,0,.08-.4,8.976,8.976,0,0,0-1.04-4.205,2.7,2.7,0,0,1-.335-1.13.311.311,0,0,1,.049-.189.32.32,0,0,1,.2-.1c.832-.164,2.264.481,2.847-.442C700.283,372.536,699.765,371.414,699.5,370.871Z" transform="translate(-573.772 -324.744)" fill="#a0616a"/>
    <path id="Tracé_1134" data-name="Tracé 1134" d="M797.737,243.35a.753.753,0,0,1,.051-.351c.133-.236.481-.171.743-.105a17.3,17.3,0,0,0,3.253.087,2.57,2.57,0,0,1,2.529,1.671,7.931,7.931,0,0,0,2.006-2.061,2.475,2.475,0,0,0,.523-1.509,2.948,2.948,0,0,0-1.32-1.859l-1.807-1.475a2.723,2.723,0,0,0-.809-.515,4.034,4.034,0,0,0-1.314-.074c-1.316,0-2.719-.6-3.889,0a4.2,4.2,0,0,0-1.211,1.1l-1.613,1.91a1.02,1.02,0,0,0-.258.437,1.943,1.943,0,0,0,.116.7c.076.427-.107.882.034,1.292.234.68,1.06.776,1.565,1.166.188.145.483.638.707.632C797.447,244.387,797.727,243.664,797.737,243.35Z" transform="translate(-654.9 -218.547)" fill="#3f3d56"/>
    <path id="Tracé_1135" data-name="Tracé 1135" d="M744.125,333.459a2.1,2.1,0,0,0-.541.5c-.189.286-.228.648-.391.95-.348.647-1.162.877-1.67,1.408a.527.527,0,0,0-.161.275.614.614,0,0,0,.137.4l2.45,3.851c.816.072,1.6-.439,2.414-.371a2.426,2.426,0,0,0,.909.04,2.609,2.609,0,0,0,.583-.357c.487-.308,1.135-.344,1.544-.75a2.114,2.114,0,0,0,.437-1.552,6.242,6.242,0,0,0-.146-1.428c-.361-1.478-1.491-2.612-2.2-3.922-.345-.637-.533-1.011-1.263-.573S744.816,332.954,744.125,333.459Z" transform="translate(-612.26 -294.499)" fill="#3184ba"/>
    <path id="Tracé_1136" data-name="Tracé 1136" d="M887.651,325.363a5.726,5.726,0,0,1,1.232,1.079c.373.481.584,1.07.943,1.562a17.414,17.414,0,0,0,1.215,1.286,9.937,9.937,0,0,1,1.4,2.281,34.108,34.108,0,0,1-3.169,3.581,1.022,1.022,0,0,1-.481.316.776.776,0,0,1-.68-.277c-.176-.185-.3-.413-.47-.605a2.423,2.423,0,0,0-1.5-.724,10.285,10.285,0,0,0-1.7-.023.671.671,0,0,1-.362-.061.609.609,0,0,1-.2-.227,5.6,5.6,0,0,1-.216-3.833l.537-2.955a6.637,6.637,0,0,1,.447-1.643c.2-.435.658-1.172,1.217-1.042S887.177,325.022,887.651,325.363Z" transform="translate(-726.036 -288.351)" fill="#3285bb"/>
    <ellipse id="Ellipse_90" data-name="Ellipse 90" cx="8.167" cy="8.182" rx="8.167" ry="8.182" transform="translate(55.171 40.053)" fill="#fff"/>
    <path id="Tracé_1137" data-name="Tracé 1137" d="M371.991,338.851a9.761,9.761,0,1,0,9.761,9.761A9.761,9.761,0,0,0,371.991,338.851Zm-2,14.965-5-5,1.4-1.4,3.6,3.6,7.607-7.607,1.4,1.4-9.015,9.006Z" transform="translate(-308.653 -300.193)" fill="#57b894"/>
  </g>
</svg>
