<svg xmlns="http://www.w3.org/2000/svg" width="24" height="24" viewBox="0 0 24 24">
  <g id="Groupe_255" data-name="Groupe 255" transform="translate(-1475 2968)">
    <path id="Path" d="M0,0H24V24H0Z" transform="translate(1475 -2968)" fill="none"/>
    <path id="Tracé_1058" data-name="Tracé 1058" d="M44.625,18.518l-7.261-6.706.554-.554a.538.538,0,0,0-.036-.8l-.25-.2.68-.68.215.215a1.123,1.123,0,0,0,1.574,0l.215-.215a1.123,1.123,0,0,0,0-1.574L36.435,4.122a1.123,1.123,0,0,0-1.574,0l-.215.215a1.123,1.123,0,0,0,0,1.574l.215.215L33.824,7.162l-.3-.232a.548.548,0,0,0-.733.036L31.767,7.985l-1,1.037a.548.548,0,0,0-.036.733l.232.3L29.925,11.1l-.215-.215a1.123,1.123,0,0,0-1.574,0l-.215.215a1.123,1.123,0,0,0,0,1.574l3.863,3.881a1.123,1.123,0,0,0,1.574,0l.215-.215a1.123,1.123,0,0,0,0-1.574l-.215-.215.68-.68.2.25a.538.538,0,0,0,.8.036l.554-.554,6.688,7.261a1.658,1.658,0,1,0,2.343-2.343Z" transform="translate(1450.4 -2968.8)" fill="silver"/>
  </g>
</svg>
