<svg xmlns="http://www.w3.org/2000/svg" width="16.67" height="16.62" viewBox="0 0 16.67 16.62">
  <g id="_7_Calendar" data-name="7 Calendar" transform="translate(-826.841 -3588.671)">
    <path id="Tracé_129" data-name="Tracé 129" d="M842.816,3590.208h-2.778v-.768a.7.7,0,1,0-1.389,0v.768H831.7v-.768a.7.7,0,1,0-1.389,0v.768h-2.778a.735.735,0,0,0-.695.769v13.545a.734.734,0,0,0,.695.769h15.281a.734.734,0,0,0,.695-.769v-13.545A.735.735,0,0,0,842.816,3590.208Zm-.695,13.546H828.23v-12.009h2.084v.768a.7.7,0,1,0,1.389,0v-.768h6.946v.768a.7.7,0,1,0,1.389,0v-.768h2.084Z" fill="#1d82ba"/>
    <circle id="Ellipse_11" data-name="Ellipse 11" cx="0.646" cy="0.646" r="0.646" transform="translate(832.48 3595.597)" fill="#1d82ba"/>
    <circle id="Ellipse_12" data-name="Ellipse 12" cx="0.646" cy="0.646" r="0.646" transform="translate(830.429 3595.597)" fill="#1d82ba"/>
    <circle id="Ellipse_13" data-name="Ellipse 13" cx="0.646" cy="0.646" r="0.646" transform="translate(834.53 3597.882)" fill="#1d82ba"/>
    <circle id="Ellipse_14" data-name="Ellipse 14" cx="0.646" cy="0.646" r="0.646" transform="translate(832.48 3597.882)" fill="#1d82ba"/>
    <circle id="Ellipse_15" data-name="Ellipse 15" cx="0.646" cy="0.646" r="0.646" transform="translate(838.631 3597.882)" fill="#1d82ba"/>
    <circle id="Ellipse_16" data-name="Ellipse 16" cx="0.646" cy="0.646" r="0.646" transform="translate(836.581 3597.882)" fill="#1d82ba"/>
    <circle id="Ellipse_17" data-name="Ellipse 17" cx="0.646" cy="0.646" r="0.646" transform="translate(838.631 3600.167)" fill="#1d82ba"/>
    <circle id="Ellipse_18" data-name="Ellipse 18" cx="0.646" cy="0.646" r="0.646" transform="translate(836.581 3600.167)" fill="#1d82ba"/>
    <circle id="Ellipse_19" data-name="Ellipse 19" cx="0.646" cy="0.646" r="0.646" transform="translate(830.429 3597.882)" fill="#1d82ba"/>
  </g>
</svg>
