<svg xmlns="http://www.w3.org/2000/svg" width="14" height="14" viewBox="0 0 14 14">
  <g id="_2_Timer" data-name="2 Timer" transform="translate(-346.841 -3586.671)">
    <path id="Tracé_136" data-name="Tracé 136" d="M355.4,3603.78a6.148,6.148,0,1,1,6.148-6.148A6.155,6.155,0,0,1,355.4,3603.78Zm0-11.157a5.009,5.009,0,1,0,5.009,5.009A5.015,5.015,0,0,0,355.4,3592.623Z" transform="translate(-1.554 -3.109)" fill="#1d82ba"/>
    <path id="Tracé_137" data-name="Tracé 137" d="M372.387,3604.439h-2.838a.708.708,0,0,1-.708-.708v-4.415a.708.708,0,0,1,1.416,0v3.707h2.13a.708.708,0,1,1,0,1.416Z" transform="translate(-16.041 -8.845)" fill="#1d82ba"/>
    <path id="Tracé_138" data-name="Tracé 138" d="M347.549,3591.628a.708.708,0,0,1-.5-1.208l3.54-3.541a.708.708,0,0,1,1,1l-3.54,3.541A.7.7,0,0,1,347.549,3591.628Z" fill="#1d82ba"/>
    <path id="Tracé_139" data-name="Tracé 139" d="M385.09,3591.628a.7.7,0,0,1-.5-.207l-3.54-3.541a.708.708,0,1,1,1-1l3.54,3.541a.708.708,0,0,1-.5,1.208Z" transform="translate(-24.957)" fill="#1d82ba"/>
  </g>
</svg>
