<svg xmlns="http://www.w3.org/2000/svg" width="16.66" height="16.66" viewBox="0 0 16.66 16.66">
  <g id="_23_Dollar_2" data-name="23 Dollar_2" transform="translate(-922.841 -2338.671)">
    <path id="Tracé_274" data-name="Tracé 274" d="M931.171,2340.059a6.942,6.942,0,1,1-6.942,6.942,6.95,6.95,0,0,1,6.942-6.942m0-1.388a8.33,8.33,0,1,0,8.33,8.33,8.33,8.33,0,0,0-8.33-8.33Z" transform="translate(0)" fill="#1d82ba"/>
    <path id="Tracé_275" data-name="Tracé 275" d="M944.376,2351.385a5.943,5.943,0,0,0-2.231-.544v-.179a.556.556,0,0,0-1.1,0v.216a2.806,2.806,0,0,0-1.389.57,1.5,1.5,0,0,0-.536,1.141c0,.054-.007,1.3,1.924,1.969v2.136a6.414,6.414,0,0,1-1.721-.345.581.581,0,0,0-.732.242.471.471,0,0,0,.272.652,7.693,7.693,0,0,0,2.181.439v.194a.556.556,0,0,0,1.1,0v-.188a2.148,2.148,0,0,0,2.163-1.888c0-1.307-1.532-1.747-2.035-1.892l-.076-.022-.051-.016v-2.042a4.829,4.829,0,0,1,1.673.405.591.591,0,0,0,.753-.175A.463.463,0,0,0,944.376,2351.385Zm-4.156,1.22a.562.562,0,0,1,.2-.449,1.435,1.435,0,0,1,.623-.27v1.592C940.255,2353.089,940.221,2352.625,940.221,2352.606Zm2.985,3.167c-.011.14-.114.773-1.06.923v-1.788C942.676,2355.08,943.2,2355.335,943.205,2355.773Z" transform="translate(-10.422 -7.269)" fill="#1d82ba"/>
  </g>
</svg>
