<svg xmlns="http://www.w3.org/2000/svg" width="13.5" height="18" viewBox="0 0 13.5 18">
  <g id="_6_Hourglass_2" data-name="6 Hourglass_2" transform="translate(-736.841 -3586.671)">
    <path id="Tracé_130" data-name="Tracé 130" d="M749.591,3603.171h-.75v-2.521a3.367,3.367,0,0,0-1.214-2.593l-2.864-2.387,2.864-2.387a3.366,3.366,0,0,0,1.214-2.592v-2.521h.75a.75.75,0,0,0,0-1.5h-12a.75.75,0,0,0,0,1.5h.75v2.521a3.366,3.366,0,0,0,1.214,2.592l2.864,2.387-2.864,2.387a3.367,3.367,0,0,0-1.214,2.593v2.521h-.75a.75.75,0,1,0,0,1.5h12a.75.75,0,1,0,0-1.5Zm-2.25-15v2.521a1.867,1.867,0,0,1-.4,1.159h-6.7a1.867,1.867,0,0,1-.4-1.159v-2.521Zm-7.5,12.479a1.871,1.871,0,0,1,.675-1.44l3.075-2.563,3.075,2.563a1.871,1.871,0,0,1,.675,1.44v1.771l-3.23-1.615a1.162,1.162,0,0,0-1.041,0l-3.23,1.615Z" fill="#1d82ba"/>
  </g>
</svg>
