<svg xmlns="http://www.w3.org/2000/svg" width="14" height="13" viewBox="0 0 14 13"><path d="M31.9,28.228a.133.133,0,0,0,.193,0l.042-.044a3.751,3.751,0,0,1,5.469,0l.137.143a4.616,4.616,0,0,1,0,6.329l-4.672,4.88a1.475,1.475,0,0,1-2.149,0l-4.672-4.88a4.619,4.619,0,0,1,0-6.329l.137-.143a3.751,3.751,0,0,1,5.469,0Zm-4.534.976-.137.143a3.129,3.129,0,0,0,0,4.288l4.672,4.88a.135.135,0,0,0,.2,0l4.672-4.88a3.127,3.127,0,0,0,0-4.288L36.63,29.2a2.41,2.41,0,0,0-3.515,0l-.042.044a1.473,1.473,0,0,1-2.147,0l-.042-.044A2.411,2.411,0,0,0,27.369,29.2Z" transform="translate(-25 -27)" fill="#3d89bf"/></svg>