<svg xmlns="http://www.w3.org/2000/svg" width="17.562" height="17.598" viewBox="0 0 17.562 17.598">
  <path id="Tracé_1058" data-name="Tracé 1058" d="M44.625,18.518l-7.261-6.706.554-.554a.538.538,0,0,0-.036-.8l-.25-.2.68-.68.215.215a1.123,1.123,0,0,0,1.574,0l.215-.215a1.123,1.123,0,0,0,0-1.574L36.435,4.122a1.123,1.123,0,0,0-1.574,0l-.215.215a1.123,1.123,0,0,0,0,1.574l.215.215L33.824,7.162l-.3-.232a.548.548,0,0,0-.733.036L31.767,7.985l-1,1.037a.548.548,0,0,0-.036.733l.232.3L29.925,11.1l-.215-.215a1.123,1.123,0,0,0-1.574,0l-.215.215a1.123,1.123,0,0,0,0,1.574l3.863,3.881a1.123,1.123,0,0,0,1.574,0l.215-.215a1.123,1.123,0,0,0,0-1.574l-.215-.215.68-.68.2.25a.538.538,0,0,0,.8.036l.554-.554,6.688,7.261a1.658,1.658,0,1,0,2.343-2.343Z" transform="translate(-27.6 -3.8)" fill="#3d89bf"/>
</svg>
