<svg xmlns="http://www.w3.org/2000/svg" width="24" height="24" viewBox="0 0 24 24">
  <g id="Groupe_268" data-name="Groupe 268" transform="translate(-213 -226)">
    <g id="Groupe_265" data-name="Groupe 265" transform="translate(16 -229)">
      <rect id="Rectangle_184" data-name="Rectangle 184" width="24" height="24" rx="2" transform="translate(197 455)" fill="rgba(165,232,240,0.2)"/>
      <g id="_23_Dollar_2" data-name="23 Dollar_2" transform="translate(202.454 460.455)">
        <path id="Tracé_274" data-name="Tracé 274" d="M929.841,2339.837a5.833,5.833,0,1,1-5.833,5.833,5.84,5.84,0,0,1,5.833-5.833m0-1.167a7,7,0,1,0,7,7,7,7,0,0,0-7-7Z" transform="translate(-922.841 -2338.671)" fill="#1d82ba"/>
        <path id="Tracé_275" data-name="Tracé 275" d="M943.325,2351.167a4.871,4.871,0,0,0-1.83-.446v-.146a.455.455,0,0,0-.9,0v.177a2.3,2.3,0,0,0-1.139.467,1.226,1.226,0,0,0-.439.936c0,.044-.005,1.064,1.578,1.615v1.751a5.265,5.265,0,0,1-1.411-.283.476.476,0,0,0-.6.2.386.386,0,0,0,.223.534,6.308,6.308,0,0,0,1.788.36v.159a.455.455,0,0,0,.9,0v-.154a1.761,1.761,0,0,0,1.774-1.548c0-1.072-1.256-1.433-1.669-1.552l-.063-.018-.042-.013v-1.674a3.957,3.957,0,0,1,1.371.332.485.485,0,0,0,.618-.143A.38.38,0,0,0,943.325,2351.167Zm-3.407,1a.461.461,0,0,1,.162-.368,1.178,1.178,0,0,1,.51-.221v1.306C939.946,2352.564,939.918,2352.183,939.918,2352.167Zm2.447,2.6c-.009.115-.094.634-.869.757v-1.466C941.931,2354.2,942.365,2354.405,942.365,2354.765Z" transform="translate(-934.043 -2346.532)" fill="#1d82ba"/>
      </g>
    </g>
  </g>
</svg>
