<svg xmlns="http://www.w3.org/2000/svg" width="16.994" height="16.994" viewBox="0 0 16.994 16.994">
  <g id="_2_Timer" data-name="2 Timer" transform="translate(-346.841 -3586.671)">
    <path id="Tracé_136" data-name="Tracé 136" d="M356.892,3606.774a7.645,7.645,0,1,1,7.645-7.645A7.654,7.654,0,0,1,356.892,3606.774Zm0-13.874a6.229,6.229,0,1,0,6.229,6.229A6.236,6.236,0,0,0,356.892,3592.9Z" transform="translate(-1.554 -3.109)" fill="#1d82ba"/>
    <path id="Tracé_137" data-name="Tracé 137" d="M372.387,3604.439h-2.838a.708.708,0,0,1-.708-.708v-4.415a.708.708,0,0,1,1.416,0v3.707h2.13a.708.708,0,1,1,0,1.416Z" transform="translate(-14.211 -7.711)" fill="#1d82ba"/>
    <path id="Tracé_138" data-name="Tracé 138" d="M347.549,3591.628a.708.708,0,0,1-.5-1.208l3.54-3.541a.708.708,0,0,1,1,1l-3.54,3.541A.7.7,0,0,1,347.549,3591.628Z" fill="#1d82ba"/>
    <path id="Tracé_139" data-name="Tracé 139" d="M385.09,3591.628a.7.7,0,0,1-.5-.207l-3.54-3.541a.708.708,0,1,1,1-1l3.54,3.541a.708.708,0,0,1-.5,1.208Z" transform="translate(-21.962)" fill="#1d82ba"/>
  </g>
</svg>
