<svg xmlns="http://www.w3.org/2000/svg" width="26.154" height="21.256" viewBox="0 0 26.154 21.256">
  <g id="layer1" transform="translate(-540.179 -569.858)">
    <path id="path3611" d="M548.4,591.114a15.164,15.164,0,0,0,15.268-15.267q0-.348-.015-.694a10.912,10.912,0,0,0,2.677-2.779,10.7,10.7,0,0,1-3.082.845,5.385,5.385,0,0,0,2.36-2.968,10.761,10.761,0,0,1-3.407,1.3,5.371,5.371,0,0,0-9.144,4.894A15.235,15.235,0,0,1,542,570.841,5.371,5.371,0,0,0,543.661,578a5.326,5.326,0,0,1-2.43-.671c0,.023,0,.044,0,.069a5.368,5.368,0,0,0,4.305,5.26,5.358,5.358,0,0,1-2.423.092,5.371,5.371,0,0,0,5.013,3.727,10.765,10.765,0,0,1-6.665,2.3,10.912,10.912,0,0,1-1.28-.074,15.19,15.19,0,0,0,8.226,2.41" transform="translate(0)" fill="#1da1f2"/>
  </g>
</svg>
